<svg width="181" height="45" viewBox="0 0 181 45" fill="none" xmlns="http://www.w3.org/2000/svg">
<path d="M16.5917 9.36779V10.8258C16.5771 15.713 14.1422 19.6073 9.29 22.5102C4.43778 25.4116 14.1539 19.5942 9.30166 22.4898C4.44944 25.3912 2.01166 29.287 2 34.1742V35.6322" stroke="url(#paint0_linear_1_22)" stroke-width="4" stroke-linecap="round" stroke-linejoin="round"/>
<path d="M16.5917 35.6322V34.1742C16.5771 29.287 14.1422 25.3927 9.29 22.4898C4.43778 19.5884 14.1539 25.4058 9.30166 22.5102C4.44944 19.6073 2.01166 15.713 2 10.8258V9.36779" stroke="url(#paint1_linear_1_22)" stroke-width="4" stroke-linecap="round" stroke-linejoin="round"/>
<path d="M37.9197 36.36C36.1197 36.36 34.4397 36.024 32.8797 35.352C31.3197 34.68 29.9517 33.756 28.7757 32.58C27.5997 31.38 26.6757 30 26.0037 28.44C25.3557 26.856 25.0317 25.164 25.0317 23.364C25.0317 21.564 25.3557 19.884 26.0037 18.324C26.6757 16.764 27.5877 15.396 28.7397 14.22C29.9157 13.02 31.2717 12.096 32.8077 11.448C34.3677 10.776 36.0477 10.44 37.8477 10.44C39.6477 10.44 41.3157 10.776 42.8517 11.448C44.4117 12.096 45.7797 13.02 46.9557 14.22C48.1317 15.396 49.0437 16.776 49.6917 18.36C50.3637 19.92 50.6997 21.6 50.6997 23.4C50.6997 25.2 50.3637 26.892 49.6917 28.476C49.0437 30.036 48.1317 31.404 46.9557 32.58C45.8037 33.756 44.4477 34.68 42.8877 35.352C41.3517 36.024 39.6957 36.36 37.9197 36.36ZM37.8477 32.4C39.5517 32.4 41.0397 32.016 42.3117 31.248C43.6077 30.48 44.6157 29.424 45.3357 28.08C46.0797 26.712 46.4517 25.14 46.4517 23.364C46.4517 22.044 46.2357 20.844 45.8037 19.764C45.3957 18.66 44.8077 17.712 44.0397 16.92C43.2717 16.104 42.3597 15.48 41.3037 15.048C40.2717 14.616 39.1197 14.4 37.8477 14.4C36.1677 14.4 34.6797 14.784 33.3837 15.552C32.1117 16.296 31.1037 17.34 30.3597 18.684C29.6397 20.028 29.2797 21.588 29.2797 23.364C29.2797 24.684 29.4837 25.908 29.8917 27.036C30.3237 28.14 30.9117 29.088 31.6557 29.88C32.4237 30.672 33.3357 31.296 34.3917 31.752C35.4477 32.184 36.5997 32.4 37.8477 32.4ZM61.1017 36.36C59.7817 36.36 58.6057 36.084 57.5737 35.532C56.5417 34.956 55.7257 34.176 55.1257 33.192C54.5497 32.208 54.2617 31.092 54.2617 29.844V24.876C54.2617 23.628 54.5617 22.512 55.1617 21.528C55.7617 20.544 56.5777 19.776 57.6097 19.224C58.6417 18.648 59.8057 18.36 61.1017 18.36C62.6617 18.36 64.0657 18.768 65.3137 19.584C66.5857 20.376 67.5817 21.456 68.3017 22.824C69.0457 24.168 69.4177 25.692 69.4177 27.396C69.4177 29.076 69.0457 30.6 68.3017 31.968C67.5817 33.312 66.5857 34.38 65.3137 35.172C64.0657 35.964 62.6617 36.36 61.1017 36.36ZM51.8497 43.2V18.72H55.8097V23.364L55.1257 27.576L55.8097 31.752V43.2H51.8497ZM60.4537 32.616C61.4137 32.616 62.2537 32.4 62.9737 31.968C63.7177 31.512 64.2937 30.888 64.7017 30.096C65.1337 29.304 65.3497 28.392 65.3497 27.36C65.3497 26.328 65.1337 25.416 64.7017 24.624C64.2937 23.832 63.7177 23.22 62.9737 22.788C62.2537 22.332 61.4137 22.104 60.4537 22.104C59.4937 22.104 58.6417 22.332 57.8977 22.788C57.1537 23.22 56.5777 23.832 56.1697 24.624C55.7617 25.416 55.5577 26.328 55.5577 27.36C55.5577 28.392 55.7617 29.304 56.1697 30.096C56.5777 30.888 57.1537 31.512 57.8977 31.968C58.6417 32.4 59.4937 32.616 60.4537 32.616ZM78.2405 36.36C76.5125 36.36 74.9525 35.976 73.5605 35.208C72.1925 34.416 71.1005 33.336 70.2845 31.968C69.4925 30.6 69.0965 29.064 69.0965 27.36C69.0965 25.656 69.4925 24.132 70.2845 22.788C71.0765 21.42 72.1445 20.34 73.4885 19.548C74.8565 18.756 76.3685 18.36 78.0245 18.36C79.6325 18.36 81.0485 18.732 82.2725 19.476C83.5205 20.22 84.4925 21.24 85.1885 22.536C85.9085 23.832 86.2685 25.308 86.2685 26.964C86.2685 27.252 86.2445 27.552 86.1965 27.864C86.1725 28.152 86.1245 28.476 86.0525 28.836H71.8685V25.596H84.0005L82.5245 26.892C82.4765 25.836 82.2725 24.948 81.9125 24.228C81.5525 23.508 81.0365 22.956 80.3645 22.572C79.7165 22.188 78.9125 21.996 77.9525 21.996C76.9445 21.996 76.0685 22.212 75.3245 22.644C74.5805 23.076 74.0045 23.688 73.5965 24.48C73.1885 25.248 72.9845 26.172 72.9845 27.252C72.9845 28.332 73.2005 29.28 73.6325 30.096C74.0645 30.912 74.6765 31.548 75.4685 32.004C76.2605 32.436 77.1725 32.652 78.2045 32.652C79.0925 32.652 79.9085 32.496 80.6525 32.184C81.4205 31.872 82.0685 31.416 82.5965 30.816L85.1165 33.372C84.2765 34.356 83.2565 35.1 82.0565 35.604C80.8565 36.108 79.5845 36.36 78.2405 36.36ZM98.767 36V26.028C98.767 24.876 98.395 23.928 97.651 23.184C96.931 22.44 95.995 22.068 94.843 22.068C94.075 22.068 93.391 22.236 92.791 22.572C92.191 22.908 91.723 23.376 91.387 23.976C91.051 24.576 90.883 25.26 90.883 26.028L89.335 25.164C89.335 23.844 89.623 22.68 90.199 21.672C90.775 20.64 91.567 19.836 92.575 19.26C93.607 18.66 94.759 18.36 96.031 18.36C97.327 18.36 98.479 18.696 99.487 19.368C100.495 20.016 101.287 20.868 101.863 21.924C102.439 22.956 102.727 24.036 102.727 25.164V36H98.767ZM86.923 36V18.72H90.883V36H86.923ZM116.147 36.36C114.419 36.36 112.787 36.024 111.251 35.352C109.715 34.68 108.371 33.756 107.219 32.58C106.067 31.38 105.155 30 104.483 28.44C103.835 26.856 103.511 25.164 103.511 23.364C103.511 21.564 103.835 19.884 104.483 18.324C105.155 16.764 106.067 15.396 107.219 14.22C108.395 13.02 109.763 12.096 111.323 11.448C112.907 10.776 114.611 10.44 116.435 10.44C118.427 10.44 120.275 10.824 121.979 11.592C123.683 12.36 125.111 13.452 126.263 14.868L123.455 17.676C122.711 16.62 121.715 15.816 120.467 15.264C119.219 14.688 117.875 14.4 116.435 14.4C114.707 14.4 113.183 14.784 111.863 15.552C110.567 16.296 109.559 17.34 108.839 18.684C108.119 20.028 107.759 21.588 107.759 23.364C107.759 25.14 108.119 26.712 108.839 28.08C109.583 29.424 110.579 30.48 111.827 31.248C113.075 32.016 114.491 32.4 116.075 32.4C117.755 32.4 119.195 32.1 120.395 31.5C121.619 30.876 122.555 29.964 123.203 28.764C123.851 27.54 124.175 26.04 124.175 24.264L126.767 26.136H116.003V22.356H128.459V22.932C128.459 25.932 127.919 28.428 126.839 30.42C125.783 32.412 124.331 33.9 122.483 34.884C120.635 35.868 118.523 36.36 116.147 36.36ZM137.548 36.36C135.82 36.36 134.26 35.976 132.868 35.208C131.5 34.416 130.408 33.336 129.592 31.968C128.8 30.6 128.404 29.064 128.404 27.36C128.404 25.656 128.8 24.132 129.592 22.788C130.384 21.42 131.452 20.34 132.796 19.548C134.164 18.756 135.676 18.36 137.332 18.36C138.94 18.36 140.356 18.732 141.58 19.476C142.828 20.22 143.8 21.24 144.496 22.536C145.216 23.832 145.576 25.308 145.576 26.964C145.576 27.252 145.552 27.552 145.504 27.864C145.48 28.152 145.432 28.476 145.36 28.836H131.176V25.596H143.308L141.832 26.892C141.784 25.836 141.58 24.948 141.22 24.228C140.86 23.508 140.344 22.956 139.672 22.572C139.024 22.188 138.22 21.996 137.26 21.996C136.252 21.996 135.376 22.212 134.632 22.644C133.888 23.076 133.312 23.688 132.904 24.48C132.496 25.248 132.292 26.172 132.292 27.252C132.292 28.332 132.508 29.28 132.94 30.096C133.372 30.912 133.984 31.548 134.776 32.004C135.568 32.436 136.48 32.652 137.512 32.652C138.4 32.652 139.216 32.496 139.96 32.184C140.728 31.872 141.376 31.416 141.904 30.816L144.424 33.372C143.584 34.356 142.564 35.1 141.364 35.604C140.164 36.108 138.892 36.36 137.548 36.36ZM158.074 36V26.028C158.074 24.876 157.702 23.928 156.958 23.184C156.238 22.44 155.302 22.068 154.15 22.068C153.382 22.068 152.698 22.236 152.098 22.572C151.498 22.908 151.03 23.376 150.694 23.976C150.358 24.576 150.19 25.26 150.19 26.028L148.642 25.164C148.642 23.844 148.93 22.68 149.506 21.672C150.082 20.64 150.874 19.836 151.882 19.26C152.914 18.66 154.066 18.36 155.338 18.36C156.634 18.36 157.786 18.696 158.794 19.368C159.802 20.016 160.594 20.868 161.17 21.924C161.746 22.956 162.034 24.036 162.034 25.164V36H158.074ZM146.23 36V18.72H150.19V36H146.23ZM171.566 36.36C169.838 36.36 168.278 35.976 166.886 35.208C165.518 34.416 164.426 33.336 163.61 31.968C162.818 30.6 162.422 29.064 162.422 27.36C162.422 25.656 162.818 24.132 163.61 22.788C164.402 21.42 165.47 20.34 166.814 19.548C168.182 18.756 169.694 18.36 171.35 18.36C172.958 18.36 174.374 18.732 175.598 19.476C176.846 20.22 177.818 21.24 178.514 22.536C179.234 23.832 179.594 25.308 179.594 26.964C179.594 27.252 179.57 27.552 179.522 27.864C179.498 28.152 179.45 28.476 179.378 28.836H165.194V25.596H177.326L175.85 26.892C175.802 25.836 175.598 24.948 175.238 24.228C174.878 23.508 174.362 22.956 173.69 22.572C173.042 22.188 172.238 21.996 171.278 21.996C170.27 21.996 169.394 22.212 168.65 22.644C167.906 23.076 167.33 23.688 166.922 24.48C166.514 25.248 166.31 26.172 166.31 27.252C166.31 28.332 166.526 29.28 166.958 30.096C167.39 30.912 168.002 31.548 168.794 32.004C169.586 32.436 170.498 32.652 171.53 32.652C172.418 32.652 173.234 32.496 173.978 32.184C174.746 31.872 175.394 31.416 175.922 30.816L178.442 33.372C177.602 34.356 176.582 35.1 175.382 35.604C174.182 36.108 172.91 36.36 171.566 36.36Z" fill="#000A2C"/>
<defs>
<linearGradient id="paint0_linear_1_22" x1="9.29583" y1="9.36779" x2="9.29583" y2="35.6322" gradientUnits="userSpaceOnUse">
<stop stop-color="#1A62DE"/>
<stop offset="1" stop-color="#01BAF6"/>
</linearGradient>
<linearGradient id="paint1_linear_1_22" x1="9.29583" y1="9.36779" x2="9.29583" y2="35.6322" gradientUnits="userSpaceOnUse">
<stop stop-color="#1A62DE"/>
<stop offset="1" stop-color="#01BAF6"/>
</linearGradient>
</defs>
</svg>
