<svg width="181" height="46" viewBox="0 0 181 46" fill="none" xmlns="http://www.w3.org/2000/svg">
<path d="M16.5917 10.2759V11.7339C16.5771 16.6211 14.1422 20.5154 9.29 23.4183C4.43778 26.3197 14.1539 20.5023 9.30166 23.3979C4.44944 26.2993 2.01166 30.1951 2 35.0823V36.5403" stroke="white" stroke-width="4" stroke-linecap="round" stroke-linejoin="round"/>
<path d="M16.5917 36.5403V35.0823C16.5771 30.1951 14.1422 26.3008 9.29 23.3979C4.43778 20.4965 14.1539 26.3139 9.30166 23.4183C4.44944 20.5154 2.01166 16.6211 2 11.7339V10.2759" stroke="white" stroke-width="4" stroke-linecap="round" stroke-linejoin="round"/>
<path d="M37.9197 37.2682C36.1197 37.2682 34.4397 36.9322 32.8797 36.2602C31.3197 35.5882 29.9517 34.6642 28.7757 33.4882C27.5997 32.2882 26.6757 30.9082 26.0037 29.3482C25.3557 27.7642 25.0317 26.0722 25.0317 24.2722C25.0317 22.4722 25.3557 20.7922 26.0037 19.2322C26.6757 17.6722 27.5877 16.3042 28.7397 15.1282C29.9157 13.9282 31.2717 13.0042 32.8077 12.3562C34.3677 11.6842 36.0477 11.3482 37.8477 11.3482C39.6477 11.3482 41.3157 11.6842 42.8517 12.3562C44.4117 13.0042 45.7797 13.9282 46.9557 15.1282C48.1317 16.3042 49.0437 17.6842 49.6917 19.2682C50.3637 20.8282 50.6997 22.5082 50.6997 24.3082C50.6997 26.1082 50.3637 27.8002 49.6917 29.3842C49.0437 30.9442 48.1317 32.3122 46.9557 33.4882C45.8037 34.6642 44.4477 35.5882 42.8877 36.2602C41.3517 36.9322 39.6957 37.2682 37.9197 37.2682ZM37.8477 33.3082C39.5517 33.3082 41.0397 32.9242 42.3117 32.1562C43.6077 31.3882 44.6157 30.3322 45.3357 28.9882C46.0797 27.6202 46.4517 26.0482 46.4517 24.2722C46.4517 22.9522 46.2357 21.7522 45.8037 20.6722C45.3957 19.5682 44.8077 18.6202 44.0397 17.8282C43.2717 17.0122 42.3597 16.3882 41.3037 15.9562C40.2717 15.5242 39.1197 15.3082 37.8477 15.3082C36.1677 15.3082 34.6797 15.6922 33.3837 16.4602C32.1117 17.2042 31.1037 18.2482 30.3597 19.5922C29.6397 20.9362 29.2797 22.4962 29.2797 24.2722C29.2797 25.5922 29.4837 26.8162 29.8917 27.9442C30.3237 29.0482 30.9117 29.9962 31.6557 30.7882C32.4237 31.5802 33.3357 32.2042 34.3917 32.6602C35.4477 33.0922 36.5997 33.3082 37.8477 33.3082ZM61.1017 37.2682C59.7817 37.2682 58.6057 36.9922 57.5737 36.4402C56.5417 35.8642 55.7257 35.0842 55.1257 34.1002C54.5497 33.1162 54.2617 32.0002 54.2617 30.7522V25.7842C54.2617 24.5362 54.5617 23.4202 55.1617 22.4362C55.7617 21.4522 56.5777 20.6842 57.6097 20.1322C58.6417 19.5562 59.8057 19.2682 61.1017 19.2682C62.6617 19.2682 64.0657 19.6762 65.3137 20.4922C66.5857 21.2842 67.5817 22.3642 68.3017 23.7322C69.0457 25.0762 69.4177 26.6002 69.4177 28.3042C69.4177 29.9842 69.0457 31.5082 68.3017 32.8762C67.5817 34.2202 66.5857 35.2882 65.3137 36.0802C64.0657 36.8722 62.6617 37.2682 61.1017 37.2682ZM51.8497 44.1082V19.6282H55.8097V24.2722L55.1257 28.4842L55.8097 32.6602V44.1082H51.8497ZM60.4537 33.5242C61.4137 33.5242 62.2537 33.3082 62.9737 32.8762C63.7177 32.4202 64.2937 31.7962 64.7017 31.0042C65.1337 30.2122 65.3497 29.3002 65.3497 28.2682C65.3497 27.2362 65.1337 26.3242 64.7017 25.5322C64.2937 24.7402 63.7177 24.1282 62.9737 23.6962C62.2537 23.2402 61.4137 23.0122 60.4537 23.0122C59.4937 23.0122 58.6417 23.2402 57.8977 23.6962C57.1537 24.1282 56.5777 24.7402 56.1697 25.5322C55.7617 26.3242 55.5577 27.2362 55.5577 28.2682C55.5577 29.3002 55.7617 30.2122 56.1697 31.0042C56.5777 31.7962 57.1537 32.4202 57.8977 32.8762C58.6417 33.3082 59.4937 33.5242 60.4537 33.5242ZM78.2405 37.2682C76.5125 37.2682 74.9525 36.8842 73.5605 36.1162C72.1925 35.3242 71.1005 34.2442 70.2845 32.8762C69.4925 31.5082 69.0965 29.9722 69.0965 28.2682C69.0965 26.5642 69.4925 25.0402 70.2845 23.6962C71.0765 22.3282 72.1445 21.2482 73.4885 20.4562C74.8565 19.6642 76.3685 19.2682 78.0245 19.2682C79.6325 19.2682 81.0485 19.6402 82.2725 20.3842C83.5205 21.1282 84.4925 22.1482 85.1885 23.4442C85.9085 24.7402 86.2685 26.2162 86.2685 27.8722C86.2685 28.1602 86.2445 28.4602 86.1965 28.7722C86.1725 29.0602 86.1245 29.3842 86.0525 29.7442H71.8685V26.5042H84.0005L82.5245 27.8002C82.4765 26.7442 82.2725 25.8562 81.9125 25.1362C81.5525 24.4162 81.0365 23.8642 80.3645 23.4802C79.7165 23.0962 78.9125 22.9042 77.9525 22.9042C76.9445 22.9042 76.0685 23.1202 75.3245 23.5522C74.5805 23.9842 74.0045 24.5962 73.5965 25.3882C73.1885 26.1562 72.9845 27.0802 72.9845 28.1602C72.9845 29.2402 73.2005 30.1882 73.6325 31.0042C74.0645 31.8202 74.6765 32.4562 75.4685 32.9122C76.2605 33.3442 77.1725 33.5602 78.2045 33.5602C79.0925 33.5602 79.9085 33.4042 80.6525 33.0922C81.4205 32.7802 82.0685 32.3242 82.5965 31.7242L85.1165 34.2802C84.2765 35.2642 83.2565 36.0082 82.0565 36.5122C80.8565 37.0162 79.5845 37.2682 78.2405 37.2682ZM98.767 36.9082V26.9362C98.767 25.7842 98.395 24.8362 97.651 24.0922C96.931 23.3482 95.995 22.9762 94.843 22.9762C94.075 22.9762 93.391 23.1442 92.791 23.4802C92.191 23.8162 91.723 24.2842 91.387 24.8842C91.051 25.4842 90.883 26.1682 90.883 26.9362L89.335 26.0722C89.335 24.7522 89.623 23.5882 90.199 22.5802C90.775 21.5482 91.567 20.7442 92.575 20.1682C93.607 19.5682 94.759 19.2682 96.031 19.2682C97.327 19.2682 98.479 19.6042 99.487 20.2762C100.495 20.9242 101.287 21.7762 101.863 22.8322C102.439 23.8642 102.727 24.9442 102.727 26.0722V36.9082H98.767ZM86.923 36.9082V19.6282H90.883V36.9082H86.923ZM116.147 37.2682C114.419 37.2682 112.787 36.9322 111.251 36.2602C109.715 35.5882 108.371 34.6642 107.219 33.4882C106.067 32.2882 105.155 30.9082 104.483 29.3482C103.835 27.7642 103.511 26.0722 103.511 24.2722C103.511 22.4722 103.835 20.7922 104.483 19.2322C105.155 17.6722 106.067 16.3042 107.219 15.1282C108.395 13.9282 109.763 13.0042 111.323 12.3562C112.907 11.6842 114.611 11.3482 116.435 11.3482C118.427 11.3482 120.275 11.7322 121.979 12.5002C123.683 13.2682 125.111 14.3602 126.263 15.7762L123.455 18.5842C122.711 17.5282 121.715 16.7242 120.467 16.1722C119.219 15.5962 117.875 15.3082 116.435 15.3082C114.707 15.3082 113.183 15.6922 111.863 16.4602C110.567 17.2042 109.559 18.2482 108.839 19.5922C108.119 20.9362 107.759 22.4962 107.759 24.2722C107.759 26.0482 108.119 27.6202 108.839 28.9882C109.583 30.3322 110.579 31.3882 111.827 32.1562C113.075 32.9242 114.491 33.3082 116.075 33.3082C117.755 33.3082 119.195 33.0082 120.395 32.4082C121.619 31.7842 122.555 30.8722 123.203 29.6722C123.851 28.4482 124.175 26.9482 124.175 25.1722L126.767 27.0442H116.003V23.2642H128.459V23.8402C128.459 26.8402 127.919 29.3362 126.839 31.3282C125.783 33.3202 124.331 34.8082 122.483 35.7922C120.635 36.7762 118.523 37.2682 116.147 37.2682ZM137.548 37.2682C135.82 37.2682 134.26 36.8842 132.868 36.1162C131.5 35.3242 130.408 34.2442 129.592 32.8762C128.8 31.5082 128.404 29.9722 128.404 28.2682C128.404 26.5642 128.8 25.0402 129.592 23.6962C130.384 22.3282 131.452 21.2482 132.796 20.4562C134.164 19.6642 135.676 19.2682 137.332 19.2682C138.94 19.2682 140.356 19.6402 141.58 20.3842C142.828 21.1282 143.8 22.1482 144.496 23.4442C145.216 24.7402 145.576 26.2162 145.576 27.8722C145.576 28.1602 145.552 28.4602 145.504 28.7722C145.48 29.0602 145.432 29.3842 145.36 29.7442H131.176V26.5042H143.308L141.832 27.8002C141.784 26.7442 141.58 25.8562 141.22 25.1362C140.86 24.4162 140.344 23.8642 139.672 23.4802C139.024 23.0962 138.22 22.9042 137.26 22.9042C136.252 22.9042 135.376 23.1202 134.632 23.5522C133.888 23.9842 133.312 24.5962 132.904 25.3882C132.496 26.1562 132.292 27.0802 132.292 28.1602C132.292 29.2402 132.508 30.1882 132.94 31.0042C133.372 31.8202 133.984 32.4562 134.776 32.9122C135.568 33.3442 136.48 33.5602 137.512 33.5602C138.4 33.5602 139.216 33.4042 139.96 33.0922C140.728 32.7802 141.376 32.3242 141.904 31.7242L144.424 34.2802C143.584 35.2642 142.564 36.0082 141.364 36.5122C140.164 37.0162 138.892 37.2682 137.548 37.2682ZM158.074 36.9082V26.9362C158.074 25.7842 157.702 24.8362 156.958 24.0922C156.238 23.3482 155.302 22.9762 154.15 22.9762C153.382 22.9762 152.698 23.1442 152.098 23.4802C151.498 23.8162 151.03 24.2842 150.694 24.8842C150.358 25.4842 150.19 26.1682 150.19 26.9362L148.642 26.0722C148.642 24.7522 148.93 23.5882 149.506 22.5802C150.082 21.5482 150.874 20.7442 151.882 20.1682C152.914 19.5682 154.066 19.2682 155.338 19.2682C156.634 19.2682 157.786 19.6042 158.794 20.2762C159.802 20.9242 160.594 21.7762 161.17 22.8322C161.746 23.8642 162.034 24.9442 162.034 26.0722V36.9082H158.074ZM146.23 36.9082V19.6282H150.19V36.9082H146.23ZM171.566 37.2682C169.838 37.2682 168.278 36.8842 166.886 36.1162C165.518 35.3242 164.426 34.2442 163.61 32.8762C162.818 31.5082 162.422 29.9722 162.422 28.2682C162.422 26.5642 162.818 25.0402 163.61 23.6962C164.402 22.3282 165.47 21.2482 166.814 20.4562C168.182 19.6642 169.694 19.2682 171.35 19.2682C172.958 19.2682 174.374 19.6402 175.598 20.3842C176.846 21.1282 177.818 22.1482 178.514 23.4442C179.234 24.7402 179.594 26.2162 179.594 27.8722C179.594 28.1602 179.57 28.4602 179.522 28.7722C179.498 29.0602 179.45 29.3842 179.378 29.7442H165.194V26.5042H177.326L175.85 27.8002C175.802 26.7442 175.598 25.8562 175.238 25.1362C174.878 24.4162 174.362 23.8642 173.69 23.4802C173.042 23.0962 172.238 22.9042 171.278 22.9042C170.27 22.9042 169.394 23.1202 168.65 23.5522C167.906 23.9842 167.33 24.5962 166.922 25.3882C166.514 26.1562 166.31 27.0802 166.31 28.1602C166.31 29.2402 166.526 30.1882 166.958 31.0042C167.39 31.8202 168.002 32.4562 168.794 32.9122C169.586 33.3442 170.498 33.5602 171.53 33.5602C172.418 33.5602 173.234 33.4042 173.978 33.0922C174.746 32.7802 175.394 32.3242 175.922 31.7242L178.442 34.2802C177.602 35.2642 176.582 36.0082 175.382 36.5122C174.182 37.0162 172.91 37.2682 171.566 37.2682Z" fill="white"/>
</svg>
